<svg xmlns="http://www.w3.org/2000/svg" xmlns:xlink="http://www.w3.org/1999/xlink" width="800" zoomAndPan="magnify" viewBox="0 0 600 149.999998" height="200" preserveAspectRatio="xMidYMid meet" version="1.0"><defs><g/><clipPath id="f1c21380fe"><path d="M 69.332031 22.085938 L 175.082031 22.085938 L 175.082031 127.835938 L 69.332031 127.835938 Z M 69.332031 22.085938 " clip-rule="nonzero"/></clipPath><clipPath id="a3cd1b6f6d"><path d="M 122.207031 22.085938 C 93.003906 22.085938 69.332031 45.761719 69.332031 74.960938 C 69.332031 104.164062 93.003906 127.835938 122.207031 127.835938 C 151.410156 127.835938 175.082031 104.164062 175.082031 74.960938 C 175.082031 45.761719 151.410156 22.085938 122.207031 22.085938 " clip-rule="nonzero"/></clipPath><clipPath id="b1d11b4969"><path d="M 91.527344 48 L 153 48 L 153 95 L 91.527344 95 Z M 91.527344 48 " clip-rule="nonzero"/></clipPath><clipPath id="d791fd7558"><path d="M 102 99 L 142 99 L 142 105.785156 L 102 105.785156 Z M 102 99 " clip-rule="nonzero"/></clipPath><clipPath id="0653cbf59a"><path d="M 91.527344 86 L 153 86 L 153 95 L 91.527344 95 Z M 91.527344 86 " clip-rule="nonzero"/></clipPath><clipPath id="48d7f73501"><path d="M 98 44.285156 L 116 44.285156 L 116 63 L 98 63 Z M 98 44.285156 " clip-rule="nonzero"/></clipPath><clipPath id="19c050b6c7"><path d="M 102 44.285156 L 112 44.285156 L 112 55 L 102 55 Z M 102 44.285156 " clip-rule="nonzero"/></clipPath></defs><g clip-path="url(#f1c21380fe)"><g clip-path="url(#a3cd1b6f6d)"><path stroke-linecap="butt" transform="matrix(0.749502, 0, 0, 0.749502, 69.331218, 22.087501)" fill="none" stroke-linejoin="miter" d="M 70.547964 -0.00208567 C 31.584573 -0.00208567 0.00108538 31.586614 0.00108538 70.544793 C 0.00108538 109.508185 31.584573 141.091672 70.547964 141.091672 C 109.511356 141.091672 141.094843 109.508185 141.094843 70.544793 C 141.094843 31.586614 109.511356 -0.00208567 70.547964 -0.00208567 " stroke="#5e17eb" stroke-width="20" stroke-opacity="1" stroke-miterlimit="4"/></g></g><g clip-path="url(#b1d11b4969)"><path fill="#1bd527" d="M 149.589844 94.863281 L 94.96875 94.863281 C 94.535156 94.863281 94.117188 94.777344 93.714844 94.613281 C 93.316406 94.445312 92.960938 94.210938 92.652344 93.902344 C 92.34375 93.59375 92.109375 93.242188 91.941406 92.839844 C 91.777344 92.4375 91.691406 92.019531 91.691406 91.585938 L 91.691406 52.257812 C 91.691406 51.824219 91.777344 51.40625 91.941406 51.003906 C 92.109375 50.605469 92.34375 50.25 92.652344 49.941406 C 92.960938 49.636719 93.316406 49.398438 93.714844 49.230469 C 94.117188 49.066406 94.535156 48.984375 94.96875 48.984375 L 99.339844 48.984375 C 99.484375 48.984375 99.625 49.011719 99.757812 49.066406 C 99.890625 49.121094 100.007812 49.199219 100.113281 49.300781 C 100.214844 49.40625 100.292969 49.523438 100.347656 49.65625 C 100.402344 49.789062 100.433594 49.929688 100.433594 50.074219 C 100.433594 50.21875 100.402344 50.359375 100.347656 50.492188 C 100.292969 50.625 100.214844 50.746094 100.113281 50.847656 C 100.007812 50.949219 99.890625 51.027344 99.757812 51.085938 C 99.625 51.140625 99.484375 51.167969 99.339844 51.167969 L 94.96875 51.167969 C 94.824219 51.167969 94.6875 51.195312 94.550781 51.25 C 94.417969 51.304688 94.300781 51.386719 94.199219 51.488281 C 94.09375 51.589844 94.015625 51.707031 93.960938 51.839844 C 93.90625 51.976562 93.878906 52.113281 93.878906 52.257812 L 93.878906 91.585938 C 93.878906 91.730469 93.90625 91.867188 93.960938 92.003906 C 94.015625 92.136719 94.09375 92.253906 94.199219 92.355469 C 94.300781 92.460938 94.417969 92.539062 94.550781 92.59375 C 94.6875 92.648438 94.824219 92.675781 94.96875 92.675781 L 149.589844 92.675781 C 149.734375 92.675781 149.871094 92.648438 150.007812 92.59375 C 150.140625 92.539062 150.257812 92.460938 150.359375 92.355469 C 150.464844 92.253906 150.542969 92.136719 150.597656 92.003906 C 150.652344 91.867188 150.679688 91.730469 150.679688 91.585938 L 150.679688 52.257812 C 150.679688 52.113281 150.652344 51.976562 150.597656 51.839844 C 150.542969 51.707031 150.464844 51.589844 150.359375 51.488281 C 150.257812 51.386719 150.140625 51.304688 150.007812 51.25 C 149.871094 51.195312 149.734375 51.167969 149.589844 51.167969 L 114.632812 51.167969 C 114.488281 51.167969 114.347656 51.140625 114.214844 51.085938 C 114.082031 51.027344 113.960938 50.949219 113.859375 50.847656 C 113.757812 50.746094 113.679688 50.625 113.625 50.492188 C 113.566406 50.359375 113.539062 50.21875 113.539062 50.074219 C 113.539062 49.929688 113.566406 49.789062 113.625 49.65625 C 113.679688 49.523438 113.757812 49.40625 113.859375 49.300781 C 113.960938 49.199219 114.082031 49.121094 114.214844 49.066406 C 114.347656 49.011719 114.488281 48.984375 114.632812 48.984375 L 149.589844 48.984375 C 150.023438 48.984375 150.441406 49.066406 150.84375 49.230469 C 151.242188 49.398438 151.597656 49.636719 151.90625 49.941406 C 152.210938 50.25 152.449219 50.605469 152.617188 51.003906 C 152.78125 51.40625 152.867188 51.824219 152.867188 52.257812 L 152.867188 91.585938 C 152.867188 92.019531 152.78125 92.4375 152.617188 92.839844 C 152.449219 93.242188 152.210938 93.59375 151.90625 93.902344 C 151.597656 94.210938 151.242188 94.445312 150.84375 94.613281 C 150.441406 94.777344 150.023438 94.863281 149.589844 94.863281 Z M 149.589844 94.863281 " fill-opacity="1" fill-rule="nonzero"/></g><g clip-path="url(#d791fd7558)"><path fill="#1bd527" d="M 138.664062 105.785156 L 105.894531 105.785156 C 105.460938 105.785156 105.042969 105.703125 104.640625 105.535156 C 104.238281 105.371094 103.882812 105.132812 103.578125 104.824219 C 103.269531 104.519531 103.03125 104.164062 102.867188 103.761719 C 102.699219 103.359375 102.617188 102.941406 102.617188 102.507812 C 102.617188 102.074219 102.699219 101.65625 102.867188 101.253906 C 103.03125 100.851562 103.269531 100.5 103.578125 100.191406 C 103.882812 99.882812 104.238281 99.648438 104.640625 99.480469 C 105.042969 99.316406 105.460938 99.230469 105.894531 99.230469 L 138.664062 99.230469 C 139.097656 99.230469 139.515625 99.316406 139.917969 99.480469 C 140.320312 99.648438 140.675781 99.882812 140.980469 100.191406 C 141.289062 100.5 141.527344 100.851562 141.691406 101.253906 C 141.859375 101.65625 141.941406 102.074219 141.941406 102.507812 C 141.941406 102.941406 141.859375 103.359375 141.691406 103.761719 C 141.527344 104.164062 141.289062 104.519531 140.980469 104.824219 C 140.675781 105.132812 140.320312 105.371094 139.917969 105.535156 C 139.515625 105.703125 139.097656 105.785156 138.664062 105.785156 Z M 105.894531 101.417969 C 105.75 101.417969 105.609375 101.445312 105.476562 101.5 C 105.34375 101.554688 105.222656 101.632812 105.121094 101.734375 C 105.019531 101.839844 104.941406 101.957031 104.882812 102.089844 C 104.828125 102.222656 104.800781 102.363281 104.800781 102.507812 C 104.800781 102.652344 104.828125 102.792969 104.882812 102.925781 C 104.941406 103.058594 105.019531 103.179688 105.121094 103.28125 C 105.222656 103.382812 105.34375 103.460938 105.476562 103.519531 C 105.609375 103.574219 105.75 103.601562 105.894531 103.601562 L 138.664062 103.601562 C 138.808594 103.601562 138.949219 103.574219 139.082031 103.519531 C 139.214844 103.460938 139.335938 103.382812 139.4375 103.28125 C 139.539062 103.179688 139.617188 103.058594 139.675781 102.925781 C 139.730469 102.792969 139.757812 102.652344 139.757812 102.507812 C 139.757812 102.363281 139.730469 102.222656 139.675781 102.089844 C 139.617188 101.957031 139.539062 101.839844 139.4375 101.734375 C 139.335938 101.632812 139.214844 101.554688 139.082031 101.5 C 138.949219 101.445312 138.808594 101.417969 138.664062 101.417969 Z M 105.894531 101.417969 " fill-opacity="1" fill-rule="nonzero"/></g><path fill="#1bd527" d="M 132.667969 101.417969 L 112.152344 101.417969 L 115.070312 92.675781 L 129.75 92.675781 Z M 115.191406 99.230469 L 129.628906 99.230469 L 128.179688 94.863281 L 116.644531 94.863281 Z M 115.191406 99.230469 " fill-opacity="1" fill-rule="nonzero"/><path fill="#1bd527" d="M 131.019531 83.9375 C 130.875 83.9375 130.734375 83.910156 130.601562 83.855469 C 130.464844 83.800781 130.347656 83.722656 130.246094 83.617188 C 130.144531 83.515625 130.0625 83.398438 130.007812 83.265625 C 129.953125 83.128906 129.925781 82.992188 129.925781 82.847656 L 129.925781 63.183594 C 129.925781 63.039062 129.898438 62.898438 129.84375 62.765625 C 129.789062 62.632812 129.707031 62.511719 129.605469 62.410156 C 129.503906 62.308594 129.386719 62.230469 129.25 62.175781 C 129.117188 62.117188 128.976562 62.089844 128.832031 62.089844 L 123.371094 62.089844 C 123.226562 62.089844 123.085938 62.117188 122.953125 62.175781 C 122.820312 62.230469 122.703125 62.308594 122.597656 62.410156 C 122.496094 62.511719 122.417969 62.632812 122.363281 62.765625 C 122.308594 62.898438 122.277344 63.039062 122.277344 63.183594 L 122.277344 82.847656 C 122.277344 82.992188 122.25 83.128906 122.195312 83.265625 C 122.140625 83.398438 122.0625 83.515625 121.960938 83.617188 C 121.855469 83.722656 121.738281 83.800781 121.605469 83.855469 C 121.472656 83.910156 121.332031 83.9375 121.1875 83.9375 C 121.042969 83.9375 120.902344 83.910156 120.769531 83.855469 C 120.636719 83.800781 120.515625 83.722656 120.414062 83.617188 C 120.3125 83.515625 120.234375 83.398438 120.175781 83.265625 C 120.121094 83.128906 120.09375 82.992188 120.09375 82.847656 L 120.09375 63.183594 C 120.09375 62.75 120.175781 62.332031 120.34375 61.929688 C 120.511719 61.527344 120.746094 61.171875 121.054688 60.867188 C 121.363281 60.558594 121.714844 60.320312 122.117188 60.15625 C 122.519531 59.988281 122.9375 59.90625 123.371094 59.90625 L 128.832031 59.90625 C 129.269531 59.90625 129.6875 59.988281 130.085938 60.15625 C 130.488281 60.320312 130.84375 60.558594 131.152344 60.867188 C 131.457031 61.171875 131.695312 61.527344 131.859375 61.929688 C 132.027344 62.332031 132.109375 62.75 132.109375 63.183594 L 132.109375 82.847656 C 132.109375 82.992188 132.082031 83.128906 132.027344 83.265625 C 131.972656 83.398438 131.894531 83.515625 131.789062 83.617188 C 131.6875 83.722656 131.570312 83.800781 131.4375 83.855469 C 131.300781 83.910156 131.164062 83.9375 131.019531 83.9375 Z M 131.019531 83.9375 " fill-opacity="1" fill-rule="nonzero"/><path fill="#1bd527" d="M 131.019531 66.460938 L 125.554688 66.460938 C 125.410156 66.460938 125.273438 66.433594 125.136719 66.378906 C 125.003906 66.320312 124.886719 66.242188 124.785156 66.140625 C 124.679688 66.039062 124.601562 65.921875 124.546875 65.785156 C 124.492188 65.652344 124.464844 65.511719 124.464844 65.367188 C 124.464844 65.222656 124.492188 65.082031 124.546875 64.949219 C 124.601562 64.816406 124.679688 64.699219 124.785156 64.59375 C 124.886719 64.492188 125.003906 64.414062 125.136719 64.359375 C 125.273438 64.304688 125.410156 64.277344 125.554688 64.277344 L 131.019531 64.277344 C 131.164062 64.277344 131.300781 64.304688 131.4375 64.359375 C 131.570312 64.414062 131.6875 64.492188 131.789062 64.59375 C 131.894531 64.699219 131.972656 64.816406 132.027344 64.949219 C 132.082031 65.082031 132.109375 65.222656 132.109375 65.367188 C 132.109375 65.511719 132.082031 65.652344 132.027344 65.785156 C 131.972656 65.921875 131.894531 66.039062 131.789062 66.140625 C 131.6875 66.242188 131.570312 66.320312 131.4375 66.378906 C 131.300781 66.433594 131.164062 66.460938 131.019531 66.460938 Z M 131.019531 66.460938 " fill-opacity="1" fill-rule="nonzero"/><path fill="#1bd527" d="M 131.019531 70.828125 L 125.554688 70.828125 C 125.410156 70.828125 125.273438 70.800781 125.136719 70.746094 C 125.003906 70.691406 124.886719 70.613281 124.785156 70.511719 C 124.679688 70.40625 124.601562 70.289062 124.546875 70.15625 C 124.492188 70.023438 124.464844 69.882812 124.464844 69.738281 C 124.464844 69.59375 124.492188 69.453125 124.546875 69.320312 C 124.601562 69.1875 124.679688 69.066406 124.785156 68.964844 C 124.886719 68.863281 125.003906 68.785156 125.136719 68.726562 C 125.273438 68.671875 125.410156 68.644531 125.554688 68.644531 L 131.019531 68.644531 C 131.164062 68.644531 131.300781 68.671875 131.4375 68.726562 C 131.570312 68.785156 131.6875 68.863281 131.789062 68.964844 C 131.894531 69.066406 131.972656 69.1875 132.027344 69.320312 C 132.082031 69.453125 132.109375 69.59375 132.109375 69.738281 C 132.109375 69.882812 132.082031 70.023438 132.027344 70.15625 C 131.972656 70.289062 131.894531 70.40625 131.789062 70.511719 C 131.6875 70.613281 131.570312 70.691406 131.4375 70.746094 C 131.300781 70.800781 131.164062 70.828125 131.019531 70.828125 Z M 131.019531 70.828125 " fill-opacity="1" fill-rule="nonzero"/><path fill="#1bd527" d="M 131.019531 75.199219 L 125.554688 75.199219 C 125.410156 75.199219 125.273438 75.171875 125.136719 75.117188 C 125.003906 75.0625 124.886719 74.980469 124.785156 74.878906 C 124.679688 74.777344 124.601562 74.660156 124.546875 74.523438 C 124.492188 74.390625 124.464844 74.25 124.464844 74.105469 C 124.464844 73.960938 124.492188 73.824219 124.546875 73.6875 C 124.601562 73.554688 124.679688 73.4375 124.785156 73.335938 C 124.886719 73.230469 125.003906 73.152344 125.136719 73.097656 C 125.273438 73.042969 125.410156 73.015625 125.554688 73.015625 L 131.019531 73.015625 C 131.164062 73.015625 131.300781 73.042969 131.4375 73.097656 C 131.570312 73.152344 131.6875 73.230469 131.789062 73.335938 C 131.894531 73.4375 131.972656 73.554688 132.027344 73.6875 C 132.082031 73.824219 132.109375 73.960938 132.109375 74.105469 C 132.109375 74.25 132.082031 74.390625 132.027344 74.523438 C 131.972656 74.660156 131.894531 74.777344 131.789062 74.878906 C 131.6875 74.980469 131.570312 75.0625 131.4375 75.117188 C 131.300781 75.171875 131.164062 75.199219 131.019531 75.199219 Z M 131.019531 75.199219 " fill-opacity="1" fill-rule="nonzero"/><path fill="#1bd527" d="M 145.21875 83.9375 C 145.074219 83.9375 144.933594 83.910156 144.800781 83.855469 C 144.667969 83.800781 144.546875 83.722656 144.445312 83.617188 C 144.34375 83.515625 144.265625 83.398438 144.210938 83.265625 C 144.152344 83.128906 144.125 82.992188 144.125 82.847656 L 144.125 75.199219 C 144.125 75.054688 144.097656 74.914062 144.042969 74.78125 C 143.988281 74.648438 143.910156 74.53125 143.804688 74.425781 C 143.703125 74.324219 143.585938 74.246094 143.453125 74.191406 C 143.316406 74.132812 143.179688 74.105469 143.035156 74.105469 L 139.757812 74.105469 C 139.613281 74.105469 139.472656 74.132812 139.339844 74.191406 C 139.207031 74.246094 139.085938 74.324219 138.984375 74.425781 C 138.882812 74.53125 138.804688 74.648438 138.746094 74.78125 C 138.691406 74.914062 138.664062 75.054688 138.664062 75.199219 L 138.664062 82.847656 C 138.664062 82.992188 138.636719 83.128906 138.582031 83.265625 C 138.527344 83.398438 138.445312 83.515625 138.34375 83.617188 C 138.242188 83.722656 138.125 83.800781 137.992188 83.855469 C 137.855469 83.910156 137.71875 83.9375 137.574219 83.9375 C 137.425781 83.9375 137.289062 83.910156 137.152344 83.855469 C 137.019531 83.800781 136.902344 83.722656 136.800781 83.617188 C 136.699219 83.515625 136.617188 83.398438 136.5625 83.265625 C 136.507812 83.128906 136.480469 82.992188 136.480469 82.847656 L 136.480469 75.199219 C 136.480469 74.765625 136.5625 74.347656 136.730469 73.945312 C 136.894531 73.542969 137.132812 73.1875 137.441406 72.882812 C 137.746094 72.574219 138.101562 72.339844 138.503906 72.171875 C 138.90625 72.003906 139.324219 71.921875 139.757812 71.921875 L 143.035156 71.921875 C 143.46875 71.921875 143.886719 72.003906 144.289062 72.171875 C 144.691406 72.339844 145.042969 72.574219 145.351562 72.882812 C 145.660156 73.1875 145.894531 73.542969 146.0625 73.945312 C 146.226562 74.347656 146.3125 74.765625 146.3125 75.199219 L 146.3125 82.847656 C 146.3125 82.992188 146.285156 83.128906 146.226562 83.265625 C 146.171875 83.398438 146.09375 83.515625 145.992188 83.617188 C 145.890625 83.722656 145.769531 83.800781 145.636719 83.855469 C 145.503906 83.910156 145.363281 83.9375 145.21875 83.9375 Z M 145.21875 83.9375 " fill-opacity="1" fill-rule="nonzero"/><path fill="#1bd527" d="M 146.3125 78.476562 L 136.480469 78.476562 L 136.480469 75.199219 C 136.480469 74.765625 136.5625 74.347656 136.730469 73.945312 C 136.894531 73.542969 137.132812 73.1875 137.441406 72.882812 C 137.746094 72.574219 138.101562 72.339844 138.503906 72.171875 C 138.90625 72.003906 139.324219 71.921875 139.757812 71.921875 L 143.035156 71.921875 C 143.46875 71.921875 143.886719 72.003906 144.289062 72.171875 C 144.691406 72.339844 145.042969 72.574219 145.351562 72.882812 C 145.660156 73.1875 145.894531 73.542969 146.0625 73.945312 C 146.226562 74.347656 146.3125 74.765625 146.3125 75.199219 Z M 138.664062 76.292969 L 144.125 76.292969 L 144.125 75.199219 C 144.125 75.054688 144.097656 74.914062 144.042969 74.78125 C 143.988281 74.648438 143.910156 74.53125 143.804688 74.425781 C 143.703125 74.324219 143.585938 74.246094 143.453125 74.191406 C 143.316406 74.132812 143.179688 74.105469 143.035156 74.105469 L 139.757812 74.105469 C 139.613281 74.105469 139.472656 74.132812 139.339844 74.191406 C 139.207031 74.246094 139.085938 74.324219 138.984375 74.425781 C 138.882812 74.53125 138.804688 74.648438 138.746094 74.78125 C 138.691406 74.914062 138.664062 75.054688 138.664062 75.199219 Z M 138.664062 76.292969 " fill-opacity="1" fill-rule="nonzero"/><g clip-path="url(#0653cbf59a)"><path fill="#1bd527" d="M 149.589844 94.863281 L 94.96875 94.863281 C 94.535156 94.863281 94.117188 94.777344 93.714844 94.613281 C 93.316406 94.445312 92.960938 94.210938 92.652344 93.902344 C 92.34375 93.59375 92.109375 93.242188 91.941406 92.839844 C 91.777344 92.4375 91.691406 92.019531 91.691406 91.585938 L 91.691406 86.121094 L 152.867188 86.121094 L 152.867188 91.585938 C 152.867188 92.019531 152.78125 92.4375 152.617188 92.839844 C 152.449219 93.242188 152.210938 93.59375 151.90625 93.902344 C 151.597656 94.210938 151.242188 94.445312 150.84375 94.613281 C 150.441406 94.777344 150.023438 94.863281 149.589844 94.863281 Z M 93.878906 88.308594 L 93.878906 91.585938 C 93.878906 91.730469 93.90625 91.867188 93.960938 92.003906 C 94.015625 92.136719 94.09375 92.253906 94.199219 92.355469 C 94.300781 92.460938 94.417969 92.539062 94.550781 92.59375 C 94.6875 92.648438 94.824219 92.675781 94.96875 92.675781 L 149.589844 92.675781 C 149.734375 92.675781 149.871094 92.648438 150.007812 92.59375 C 150.140625 92.539062 150.257812 92.460938 150.359375 92.355469 C 150.464844 92.253906 150.542969 92.136719 150.597656 92.003906 C 150.652344 91.867188 150.679688 91.730469 150.679688 91.585938 L 150.679688 88.308594 Z M 93.878906 88.308594 " fill-opacity="1" fill-rule="nonzero"/></g><g clip-path="url(#48d7f73501)"><path fill="#1bd527" d="M 114.699219 62.089844 L 99.40625 62.089844 C 99 62.089844 98.691406 61.921875 98.476562 61.578125 C 98.246094 61.222656 98.230469 60.859375 98.421875 60.484375 L 106.070312 44.929688 C 106.160156 44.742188 106.292969 44.589844 106.472656 44.480469 C 106.648438 44.371094 106.84375 44.3125 107.050781 44.3125 C 107.261719 44.3125 107.453125 44.371094 107.632812 44.480469 C 107.808594 44.589844 107.945312 44.742188 108.035156 44.929688 L 115.679688 60.484375 C 115.875 60.859375 115.855469 61.222656 115.625 61.578125 C 115.414062 61.921875 115.101562 62.089844 114.699219 62.089844 Z M 101.164062 59.90625 L 112.941406 59.90625 L 107.050781 47.890625 Z M 101.164062 59.90625 " fill-opacity="1" fill-rule="nonzero"/></g><g clip-path="url(#19c050b6c7)"><path fill="#1bd527" d="M 107.050781 54.445312 C 105.5625 54.453125 104.226562 53.996094 103.054688 53.078125 C 102.847656 52.921875 102.714844 52.714844 102.65625 52.464844 C 102.597656 52.210938 102.625 51.96875 102.738281 51.734375 L 106.070312 44.960938 C 106.160156 44.773438 106.292969 44.625 106.472656 44.511719 C 106.648438 44.402344 106.84375 44.347656 107.050781 44.347656 C 107.261719 44.347656 107.453125 44.402344 107.632812 44.511719 C 107.808594 44.625 107.945312 44.773438 108.035156 44.960938 L 111.355469 51.769531 C 111.46875 52 111.496094 52.242188 111.4375 52.496094 C 111.375 52.75 111.246094 52.953125 111.039062 53.113281 C 109.863281 54.015625 108.535156 54.457031 107.050781 54.445312 Z M 105.128906 51.84375 C 105.734375 52.140625 106.375 52.289062 107.050781 52.289062 C 107.726562 52.289062 108.367188 52.140625 108.972656 51.84375 L 107.050781 47.945312 Z M 105.128906 51.84375 " fill-opacity="1" fill-rule="nonzero"/></g><path fill="#1bd527" d="M 103.773438 83.9375 C 103.628906 83.9375 103.492188 83.910156 103.355469 83.855469 C 103.222656 83.800781 103.105469 83.722656 103.003906 83.617188 C 102.898438 83.515625 102.820312 83.398438 102.765625 83.265625 C 102.710938 83.128906 102.683594 82.992188 102.683594 82.847656 L 102.683594 62.089844 L 100.496094 62.089844 L 100.496094 82.847656 C 100.496094 82.992188 100.46875 83.128906 100.414062 83.265625 C 100.359375 83.398438 100.28125 83.515625 100.175781 83.617188 C 100.074219 83.722656 99.957031 83.800781 99.824219 83.855469 C 99.6875 83.910156 99.550781 83.9375 99.40625 83.9375 C 99.261719 83.9375 99.121094 83.910156 98.988281 83.855469 C 98.851562 83.800781 98.734375 83.722656 98.632812 83.617188 C 98.53125 83.515625 98.453125 83.398438 98.394531 83.265625 C 98.339844 83.128906 98.3125 82.992188 98.3125 82.847656 L 98.3125 61 C 98.3125 60.855469 98.339844 60.714844 98.394531 60.582031 C 98.453125 60.445312 98.53125 60.328125 98.632812 60.226562 C 98.734375 60.125 98.851562 60.042969 98.988281 59.988281 C 99.121094 59.933594 99.261719 59.90625 99.40625 59.90625 L 103.773438 59.90625 C 103.917969 59.90625 104.058594 59.933594 104.191406 59.988281 C 104.328125 60.042969 104.445312 60.125 104.546875 60.226562 C 104.648438 60.328125 104.726562 60.445312 104.785156 60.582031 C 104.839844 60.714844 104.867188 60.855469 104.867188 61 L 104.867188 82.847656 C 104.867188 82.992188 104.839844 83.128906 104.785156 83.265625 C 104.726562 83.398438 104.648438 83.515625 104.546875 83.617188 C 104.445312 83.722656 104.328125 83.800781 104.191406 83.855469 C 104.058594 83.910156 103.917969 83.9375 103.773438 83.9375 Z M 103.773438 83.9375 " fill-opacity="1" fill-rule="nonzero"/><path fill="#1bd527" d="M 114.699219 83.9375 C 114.554688 83.9375 114.414062 83.910156 114.28125 83.855469 C 114.144531 83.800781 114.027344 83.722656 113.925781 83.617188 C 113.824219 83.515625 113.746094 83.398438 113.6875 83.265625 C 113.632812 83.128906 113.605469 82.992188 113.605469 82.847656 L 113.605469 62.089844 L 111.421875 62.089844 L 111.421875 82.847656 C 111.421875 82.992188 111.394531 83.128906 111.339844 83.265625 C 111.28125 83.398438 111.203125 83.515625 111.101562 83.617188 C 111 83.722656 110.878906 83.800781 110.746094 83.855469 C 110.613281 83.910156 110.472656 83.9375 110.328125 83.9375 C 110.183594 83.9375 110.042969 83.910156 109.910156 83.855469 C 109.777344 83.800781 109.660156 83.722656 109.554688 83.617188 C 109.453125 83.515625 109.375 83.398438 109.320312 83.265625 C 109.265625 83.128906 109.238281 82.992188 109.238281 82.847656 L 109.238281 61 C 109.238281 60.855469 109.265625 60.714844 109.320312 60.582031 C 109.375 60.445312 109.453125 60.328125 109.554688 60.226562 C 109.660156 60.125 109.777344 60.042969 109.910156 59.988281 C 110.042969 59.933594 110.183594 59.90625 110.328125 59.90625 L 114.699219 59.90625 C 114.84375 59.90625 114.980469 59.933594 115.117188 59.988281 C 115.25 60.042969 115.367188 60.125 115.46875 60.226562 C 115.574219 60.328125 115.652344 60.445312 115.707031 60.582031 C 115.761719 60.714844 115.789062 60.855469 115.789062 61 L 115.789062 82.847656 C 115.789062 82.992188 115.761719 83.128906 115.707031 83.265625 C 115.652344 83.398438 115.574219 83.515625 115.46875 83.617188 C 115.367188 83.722656 115.25 83.800781 115.117188 83.855469 C 114.980469 83.910156 114.84375 83.9375 114.699219 83.9375 Z M 114.699219 83.9375 " fill-opacity="1" fill-rule="nonzero"/><g fill="#151515" fill-opacity="1"><g transform="translate(182.065191, 93.682661)"><g><path d="M 23.328125 -5.921875 C 24.203125 -5.921875 24.929688 -5.640625 25.515625 -5.078125 C 26.109375 -4.523438 26.40625 -3.8125 26.40625 -2.9375 C 26.40625 -2.09375 26.109375 -1.390625 25.515625 -0.828125 C 24.929688 -0.273438 24.203125 0 23.328125 0 L 6.875 0 C 6 0 5.265625 -0.289062 4.671875 -0.875 C 4.085938 -1.46875 3.796875 -2.207031 3.796875 -3.09375 L 3.796875 -32.328125 C 3.796875 -33.203125 4.097656 -33.9375 4.703125 -34.53125 C 5.304688 -35.125 6.082031 -35.421875 7.03125 -35.421875 C 7.875 -35.421875 8.597656 -35.125 9.203125 -34.53125 C 9.816406 -33.9375 10.125 -33.203125 10.125 -32.328125 L 10.125 -5.921875 Z M 23.328125 -5.921875 "/></g></g></g><g fill="#151515" fill-opacity="1"><g transform="translate(210.49829, 93.682661)"><g><path d="M 9 -3.09375 C 9 -2.207031 8.710938 -1.46875 8.140625 -0.875 C 7.566406 -0.289062 6.84375 0 5.96875 0 C 5.09375 0 4.367188 -0.289062 3.796875 -0.875 C 3.222656 -1.46875 2.9375 -2.207031 2.9375 -3.09375 L 2.9375 -23.984375 C 2.9375 -24.859375 3.222656 -25.585938 3.796875 -26.171875 C 4.367188 -26.765625 5.09375 -27.0625 5.96875 -27.0625 C 6.84375 -27.0625 7.566406 -26.765625 8.140625 -26.171875 C 8.710938 -25.585938 9 -24.859375 9 -23.984375 Z M 5.921875 -30.359375 C 4.773438 -30.359375 3.960938 -30.539062 3.484375 -30.90625 C 3.015625 -31.28125 2.78125 -31.941406 2.78125 -32.890625 L 2.78125 -33.84375 C 2.78125 -34.789062 3.03125 -35.445312 3.53125 -35.8125 C 4.039062 -36.1875 4.851562 -36.375 5.96875 -36.375 C 7.144531 -36.375 7.96875 -36.1875 8.4375 -35.8125 C 8.914062 -35.445312 9.15625 -34.789062 9.15625 -33.84375 L 9.15625 -32.890625 C 9.15625 -31.910156 8.910156 -31.242188 8.421875 -30.890625 C 7.929688 -30.535156 7.097656 -30.359375 5.921875 -30.359375 Z M 5.921875 -30.359375 "/></g></g></g><g fill="#151515" fill-opacity="1"><g transform="translate(222.438169, 93.682661)"><g><path d="M 17.765625 -27.578125 C 21.203125 -27.578125 23.578125 -26.554688 24.890625 -24.515625 C 26.203125 -22.472656 26.859375 -19.644531 26.859375 -16.03125 L 26.859375 -3.09375 C 26.859375 -2.207031 26.570312 -1.46875 26 -0.875 C 25.425781 -0.289062 24.703125 0 23.828125 0 C 22.953125 0 22.226562 -0.289062 21.65625 -0.875 C 21.082031 -1.46875 20.796875 -2.207031 20.796875 -3.09375 L 20.796875 -16.03125 C 20.796875 -17.894531 20.40625 -19.359375 19.625 -20.421875 C 18.851562 -21.484375 17.523438 -22.015625 15.640625 -22.015625 C 13.679688 -22.015625 12.144531 -21.445312 11.03125 -20.3125 C 9.914062 -19.1875 9.359375 -17.757812 9.359375 -16.03125 L 9.359375 -3.09375 C 9.359375 -2.207031 9.070312 -1.46875 8.5 -0.875 C 7.925781 -0.289062 7.203125 0 6.328125 0 C 5.453125 0 4.722656 -0.289062 4.140625 -0.875 C 3.566406 -1.46875 3.28125 -2.207031 3.28125 -3.09375 L 3.28125 -23.984375 C 3.28125 -24.859375 3.566406 -25.585938 4.140625 -26.171875 C 4.722656 -26.765625 5.453125 -27.0625 6.328125 -27.0625 C 7.203125 -27.0625 7.925781 -26.765625 8.5 -26.171875 C 9.070312 -25.585938 9.359375 -24.859375 9.359375 -23.984375 L 9.359375 -23.125 C 10.265625 -24.332031 11.453125 -25.375 12.921875 -26.25 C 14.390625 -27.132812 16.003906 -27.578125 17.765625 -27.578125 Z M 17.765625 -27.578125 "/></g></g></g><g fill="#151515" fill-opacity="1"><g transform="translate(252.591428, 93.682661)"><g><path d="M 25.703125 -27.578125 C 26.578125 -27.578125 27.300781 -27.289062 27.875 -26.71875 C 28.445312 -26.144531 28.734375 -25.398438 28.734375 -24.484375 L 28.734375 -1.96875 C 28.734375 2.144531 27.457031 5.1875 24.90625 7.15625 C 22.363281 9.132812 19.140625 10.125 15.234375 10.125 C 14.210938 10.125 12.816406 9.953125 11.046875 9.609375 C 9.285156 9.273438 8.03125 8.9375 7.28125 8.59375 C 5.632812 7.882812 4.8125 6.910156 4.8125 5.671875 C 4.8125 5.429688 4.859375 5.160156 4.953125 4.859375 C 5.160156 4.117188 5.507812 3.550781 6 3.15625 C 6.488281 2.769531 7.019531 2.578125 7.59375 2.578125 C 7.925781 2.578125 8.242188 2.628906 8.546875 2.734375 C 8.679688 2.765625 9.515625 3.070312 11.046875 3.65625 C 12.585938 4.25 13.984375 4.546875 15.234375 4.546875 C 17.722656 4.546875 19.582031 4.046875 20.8125 3.046875 C 22.050781 2.054688 22.671875 0.65625 22.671875 -1.15625 L 22.671875 -3.59375 C 21.921875 -2.550781 20.796875 -1.609375 19.296875 -0.765625 C 17.796875 0.078125 16.1875 0.5 14.46875 0.5 C 12.101562 0.5 9.953125 -0.0976562 8.015625 -1.296875 C 6.078125 -2.492188 4.550781 -4.15625 3.4375 -6.28125 C 2.320312 -8.40625 1.765625 -10.816406 1.765625 -13.515625 C 1.765625 -16.210938 2.3125 -18.628906 3.40625 -20.765625 C 4.507812 -22.910156 6.015625 -24.582031 7.921875 -25.78125 C 9.828125 -26.976562 11.941406 -27.578125 14.265625 -27.578125 C 15.984375 -27.578125 17.582031 -27.222656 19.0625 -26.515625 C 20.550781 -25.804688 21.753906 -24.945312 22.671875 -23.9375 L 22.671875 -24.484375 C 22.671875 -25.359375 22.957031 -26.09375 23.53125 -26.6875 C 24.101562 -27.28125 24.828125 -27.578125 25.703125 -27.578125 Z M 15.234375 -5.0625 C 17.492188 -5.0625 19.335938 -5.859375 20.765625 -7.453125 C 22.203125 -9.054688 22.921875 -11.078125 22.921875 -13.515625 C 22.921875 -15.941406 22.203125 -17.960938 20.765625 -19.578125 C 19.335938 -21.203125 17.492188 -22.015625 15.234375 -22.015625 C 12.972656 -22.015625 11.132812 -21.203125 9.71875 -19.578125 C 8.300781 -17.960938 7.59375 -15.941406 7.59375 -13.515625 C 7.59375 -11.078125 8.300781 -9.054688 9.71875 -7.453125 C 11.132812 -5.859375 12.972656 -5.0625 15.234375 -5.0625 Z M 15.234375 -5.0625 "/></g></g></g><g fill="#151515" fill-opacity="1"><g transform="translate(284.616612, 93.682661)"><g><path d="M 23.375 -27.0625 C 24.25 -27.0625 24.972656 -26.765625 25.546875 -26.171875 C 26.117188 -25.585938 26.40625 -24.859375 26.40625 -23.984375 L 26.40625 -11.125 C 26.40625 -7.488281 25.398438 -4.640625 23.390625 -2.578125 C 21.390625 -0.523438 18.535156 0.5 14.828125 0.5 C 11.117188 0.5 8.265625 -0.523438 6.265625 -2.578125 C 4.273438 -4.640625 3.28125 -7.488281 3.28125 -11.125 L 3.28125 -23.984375 C 3.28125 -24.859375 3.566406 -25.585938 4.140625 -26.171875 C 4.722656 -26.765625 5.453125 -27.0625 6.328125 -27.0625 C 7.203125 -27.0625 7.925781 -26.765625 8.5 -26.171875 C 9.070312 -25.585938 9.359375 -24.859375 9.359375 -23.984375 L 9.359375 -11.125 C 9.359375 -9.070312 9.8125 -7.546875 10.71875 -6.546875 C 11.632812 -5.554688 13.003906 -5.0625 14.828125 -5.0625 C 16.679688 -5.0625 18.0625 -5.554688 18.96875 -6.546875 C 19.882812 -7.546875 20.34375 -9.070312 20.34375 -11.125 L 20.34375 -23.984375 C 20.34375 -24.859375 20.628906 -25.585938 21.203125 -26.171875 C 21.773438 -26.765625 22.5 -27.0625 23.375 -27.0625 Z M 23.375 -27.0625 "/></g></g></g><g fill="#151515" fill-opacity="1"><g transform="translate(314.314534, 93.682661)"><g><path d="M 25.203125 -27.578125 C 26.078125 -27.578125 26.800781 -27.289062 27.375 -26.71875 C 27.945312 -26.144531 28.234375 -25.398438 28.234375 -24.484375 L 28.234375 -3.09375 C 28.234375 -2.207031 27.945312 -1.46875 27.375 -0.875 C 26.800781 -0.289062 26.078125 0 25.203125 0 C 24.316406 0 23.59375 -0.285156 23.03125 -0.859375 C 22.476562 -1.429688 22.1875 -2.15625 22.15625 -3.03125 C 21.3125 -2.050781 20.171875 -1.21875 18.734375 -0.53125 C 17.304688 0.15625 15.800781 0.5 14.21875 0.5 C 11.882812 0.5 9.773438 -0.0976562 7.890625 -1.296875 C 6.003906 -2.492188 4.507812 -4.15625 3.40625 -6.28125 C 2.3125 -8.40625 1.765625 -10.816406 1.765625 -13.515625 C 1.765625 -16.210938 2.304688 -18.628906 3.390625 -20.765625 C 4.472656 -22.910156 5.945312 -24.582031 7.8125 -25.78125 C 9.6875 -26.976562 11.753906 -27.578125 14.015625 -27.578125 C 15.628906 -27.578125 17.144531 -27.28125 18.5625 -26.6875 C 19.976562 -26.09375 21.175781 -25.34375 22.15625 -24.4375 L 22.15625 -24.484375 C 22.15625 -25.359375 22.441406 -26.09375 23.015625 -26.6875 C 23.585938 -27.28125 24.316406 -27.578125 25.203125 -27.578125 Z M 14.96875 -5.0625 C 17.164062 -5.0625 18.953125 -5.859375 20.328125 -7.453125 C 21.710938 -9.054688 22.40625 -11.078125 22.40625 -13.515625 C 22.40625 -15.941406 21.710938 -17.960938 20.328125 -19.578125 C 18.953125 -21.203125 17.164062 -22.015625 14.96875 -22.015625 C 12.8125 -22.015625 11.039062 -21.203125 9.65625 -19.578125 C 8.28125 -17.960938 7.59375 -15.941406 7.59375 -13.515625 C 7.59375 -11.078125 8.273438 -9.054688 9.640625 -7.453125 C 11.003906 -5.859375 12.78125 -5.0625 14.96875 -5.0625 Z M 14.96875 -5.0625 "/></g></g></g><g fill="#151515" fill-opacity="1"><g transform="translate(345.8338, 93.682661)"><g/></g></g><g fill="#151515" fill-opacity="1"><g transform="translate(359.999758, 93.682661)"><g><path d="M 10.125 -29.59375 L 10.125 -20.6875 L 21.046875 -20.6875 C 21.921875 -20.6875 22.65625 -20.40625 23.25 -19.84375 C 23.84375 -19.289062 24.140625 -18.578125 24.140625 -17.703125 C 24.140625 -16.960938 23.84375 -16.304688 23.25 -15.734375 C 22.65625 -15.160156 21.921875 -14.875 21.046875 -14.875 L 10.125 -14.875 L 10.125 -3.09375 C 10.125 -2.207031 9.8125 -1.46875 9.1875 -0.875 C 8.5625 -0.289062 7.828125 0 6.984375 0 C 6.035156 0 5.265625 -0.285156 4.671875 -0.859375 C 4.085938 -1.429688 3.796875 -2.175781 3.796875 -3.09375 L 3.796875 -32.328125 C 3.796875 -33.203125 4.085938 -33.9375 4.671875 -34.53125 C 5.265625 -35.125 6 -35.421875 6.875 -35.421875 L 23.328125 -35.421875 C 24.203125 -35.421875 24.929688 -35.140625 25.515625 -34.578125 C 26.109375 -34.023438 26.40625 -33.3125 26.40625 -32.4375 C 26.40625 -31.6875 26.109375 -31.023438 25.515625 -30.453125 C 24.929688 -29.878906 24.203125 -29.59375 23.328125 -29.59375 Z M 10.125 -29.59375 "/></g></g></g><g fill="#151515" fill-opacity="1"><g transform="translate(388.432856, 93.682661)"><g><path d="M 17.359375 -27.578125 C 18.367188 -27.578125 19.21875 -27.289062 19.90625 -26.71875 C 20.601562 -26.144531 20.953125 -25.46875 20.953125 -24.6875 C 20.953125 -23.644531 20.679688 -22.859375 20.140625 -22.328125 C 19.597656 -21.804688 18.957031 -21.546875 18.21875 -21.546875 C 17.707031 -21.546875 17.132812 -21.664062 16.5 -21.90625 C 16.394531 -21.9375 16.164062 -22.003906 15.8125 -22.109375 C 15.457031 -22.210938 15.078125 -22.265625 14.671875 -22.265625 C 13.796875 -22.265625 12.953125 -21.992188 12.140625 -21.453125 C 11.328125 -20.910156 10.660156 -20.09375 10.140625 -19 C 9.617188 -17.90625 9.359375 -16.597656 9.359375 -15.078125 L 9.359375 -3.09375 C 9.359375 -2.207031 9.070312 -1.46875 8.5 -0.875 C 7.925781 -0.289062 7.203125 0 6.328125 0 C 5.453125 0 4.722656 -0.289062 4.140625 -0.875 C 3.566406 -1.46875 3.28125 -2.207031 3.28125 -3.09375 L 3.28125 -23.984375 C 3.28125 -24.859375 3.566406 -25.585938 4.140625 -26.171875 C 4.722656 -26.765625 5.453125 -27.0625 6.328125 -27.0625 C 7.203125 -27.0625 7.925781 -26.765625 8.5 -26.171875 C 9.070312 -25.585938 9.359375 -24.859375 9.359375 -23.984375 L 9.359375 -23.328125 C 10.140625 -24.703125 11.253906 -25.753906 12.703125 -26.484375 C 14.148438 -27.210938 15.703125 -27.578125 17.359375 -27.578125 Z M 17.359375 -27.578125 "/></g></g></g><g fill="#151515" fill-opacity="1"><g transform="translate(410.390088, 93.682661)"><g><path d="M 25.203125 -27.578125 C 26.078125 -27.578125 26.800781 -27.289062 27.375 -26.71875 C 27.945312 -26.144531 28.234375 -25.398438 28.234375 -24.484375 L 28.234375 -3.09375 C 28.234375 -2.207031 27.945312 -1.46875 27.375 -0.875 C 26.800781 -0.289062 26.078125 0 25.203125 0 C 24.316406 0 23.59375 -0.285156 23.03125 -0.859375 C 22.476562 -1.429688 22.1875 -2.15625 22.15625 -3.03125 C 21.3125 -2.050781 20.171875 -1.21875 18.734375 -0.53125 C 17.304688 0.15625 15.800781 0.5 14.21875 0.5 C 11.882812 0.5 9.773438 -0.0976562 7.890625 -1.296875 C 6.003906 -2.492188 4.507812 -4.15625 3.40625 -6.28125 C 2.3125 -8.40625 1.765625 -10.816406 1.765625 -13.515625 C 1.765625 -16.210938 2.304688 -18.628906 3.390625 -20.765625 C 4.472656 -22.910156 5.945312 -24.582031 7.8125 -25.78125 C 9.6875 -26.976562 11.753906 -27.578125 14.015625 -27.578125 C 15.628906 -27.578125 17.144531 -27.28125 18.5625 -26.6875 C 19.976562 -26.09375 21.175781 -25.34375 22.15625 -24.4375 L 22.15625 -24.484375 C 22.15625 -25.359375 22.441406 -26.09375 23.015625 -26.6875 C 23.585938 -27.28125 24.316406 -27.578125 25.203125 -27.578125 Z M 14.96875 -5.0625 C 17.164062 -5.0625 18.953125 -5.859375 20.328125 -7.453125 C 21.710938 -9.054688 22.40625 -11.078125 22.40625 -13.515625 C 22.40625 -15.941406 21.710938 -17.960938 20.328125 -19.578125 C 18.953125 -21.203125 17.164062 -22.015625 14.96875 -22.015625 C 12.8125 -22.015625 11.039062 -21.203125 9.65625 -19.578125 C 8.28125 -17.960938 7.59375 -15.941406 7.59375 -13.515625 C 7.59375 -11.078125 8.273438 -9.054688 9.640625 -7.453125 C 11.003906 -5.859375 12.78125 -5.0625 14.96875 -5.0625 Z M 14.96875 -5.0625 "/></g></g></g><g fill="#151515" fill-opacity="1"><g transform="translate(441.909354, 93.682661)"><g><path d="M 17.765625 -27.578125 C 21.203125 -27.578125 23.578125 -26.554688 24.890625 -24.515625 C 26.203125 -22.472656 26.859375 -19.644531 26.859375 -16.03125 L 26.859375 -3.09375 C 26.859375 -2.207031 26.570312 -1.46875 26 -0.875 C 25.425781 -0.289062 24.703125 0 23.828125 0 C 22.953125 0 22.226562 -0.289062 21.65625 -0.875 C 21.082031 -1.46875 20.796875 -2.207031 20.796875 -3.09375 L 20.796875 -16.03125 C 20.796875 -17.894531 20.40625 -19.359375 19.625 -20.421875 C 18.851562 -21.484375 17.523438 -22.015625 15.640625 -22.015625 C 13.679688 -22.015625 12.144531 -21.445312 11.03125 -20.3125 C 9.914062 -19.1875 9.359375 -17.757812 9.359375 -16.03125 L 9.359375 -3.09375 C 9.359375 -2.207031 9.070312 -1.46875 8.5 -0.875 C 7.925781 -0.289062 7.203125 0 6.328125 0 C 5.453125 0 4.722656 -0.289062 4.140625 -0.875 C 3.566406 -1.46875 3.28125 -2.207031 3.28125 -3.09375 L 3.28125 -23.984375 C 3.28125 -24.859375 3.566406 -25.585938 4.140625 -26.171875 C 4.722656 -26.765625 5.453125 -27.0625 6.328125 -27.0625 C 7.203125 -27.0625 7.925781 -26.765625 8.5 -26.171875 C 9.070312 -25.585938 9.359375 -24.859375 9.359375 -23.984375 L 9.359375 -23.125 C 10.265625 -24.332031 11.453125 -25.375 12.921875 -26.25 C 14.390625 -27.132812 16.003906 -27.578125 17.765625 -27.578125 Z M 17.765625 -27.578125 "/></g></g></g><g fill="#151515" fill-opacity="1"><g transform="translate(472.062612, 93.682661)"><g><path d="M 15.078125 -27.578125 C 17.941406 -27.578125 20.25 -27.128906 22 -26.234375 C 23.757812 -25.335938 24.640625 -24.148438 24.640625 -22.671875 C 24.640625 -21.921875 24.421875 -21.269531 23.984375 -20.71875 C 23.546875 -20.164062 22.972656 -19.890625 22.265625 -19.890625 C 21.722656 -19.890625 21.28125 -19.960938 20.9375 -20.109375 C 20.601562 -20.265625 20.273438 -20.46875 19.953125 -20.71875 C 19.640625 -20.96875 19.328125 -21.175781 19.015625 -21.34375 C 18.679688 -21.519531 18.1875 -21.675781 17.53125 -21.8125 C 16.875 -21.945312 16.34375 -22.015625 15.9375 -22.015625 C 13.40625 -22.015625 11.421875 -21.226562 9.984375 -19.65625 C 8.554688 -18.082031 7.84375 -16.035156 7.84375 -13.515625 C 7.84375 -11.078125 8.566406 -9.054688 10.015625 -7.453125 C 11.460938 -5.859375 13.316406 -5.0625 15.578125 -5.0625 C 17.234375 -5.0625 18.46875 -5.265625 19.28125 -5.671875 C 19.476562 -5.765625 19.753906 -5.9375 20.109375 -6.1875 C 20.460938 -6.445312 20.789062 -6.644531 21.09375 -6.78125 C 21.394531 -6.914062 21.765625 -6.984375 22.203125 -6.984375 C 23.046875 -6.984375 23.710938 -6.710938 24.203125 -6.171875 C 24.691406 -5.628906 24.9375 -4.9375 24.9375 -4.09375 C 24.9375 -3.289062 24.460938 -2.535156 23.515625 -1.828125 C 22.578125 -1.117188 21.332031 -0.550781 19.78125 -0.125 C 18.226562 0.289062 16.578125 0.5 14.828125 0.5 C 12.222656 0.5 9.9375 -0.101562 7.96875 -1.3125 C 6 -2.53125 4.472656 -4.207031 3.390625 -6.34375 C 2.304688 -8.488281 1.765625 -10.878906 1.765625 -13.515625 C 1.765625 -16.242188 2.328125 -18.671875 3.453125 -20.796875 C 4.585938 -22.921875 6.164062 -24.582031 8.1875 -25.78125 C 10.21875 -26.976562 12.515625 -27.578125 15.078125 -27.578125 Z M 15.078125 -27.578125 "/></g></g></g><g fill="#151515" fill-opacity="1"><g transform="translate(498.117848, 93.682661)"><g><path d="M 25.203125 -27.578125 C 26.078125 -27.578125 26.800781 -27.289062 27.375 -26.71875 C 27.945312 -26.144531 28.234375 -25.398438 28.234375 -24.484375 L 28.234375 -3.09375 C 28.234375 -2.207031 27.945312 -1.46875 27.375 -0.875 C 26.800781 -0.289062 26.078125 0 25.203125 0 C 24.316406 0 23.59375 -0.285156 23.03125 -0.859375 C 22.476562 -1.429688 22.1875 -2.15625 22.15625 -3.03125 C 21.3125 -2.050781 20.171875 -1.21875 18.734375 -0.53125 C 17.304688 0.15625 15.800781 0.5 14.21875 0.5 C 11.882812 0.5 9.773438 -0.0976562 7.890625 -1.296875 C 6.003906 -2.492188 4.507812 -4.15625 3.40625 -6.28125 C 2.3125 -8.40625 1.765625 -10.816406 1.765625 -13.515625 C 1.765625 -16.210938 2.304688 -18.628906 3.390625 -20.765625 C 4.472656 -22.910156 5.945312 -24.582031 7.8125 -25.78125 C 9.6875 -26.976562 11.753906 -27.578125 14.015625 -27.578125 C 15.628906 -27.578125 17.144531 -27.28125 18.5625 -26.6875 C 19.976562 -26.09375 21.175781 -25.34375 22.15625 -24.4375 L 22.15625 -24.484375 C 22.15625 -25.359375 22.441406 -26.09375 23.015625 -26.6875 C 23.585938 -27.28125 24.316406 -27.578125 25.203125 -27.578125 Z M 14.96875 -5.0625 C 17.164062 -5.0625 18.953125 -5.859375 20.328125 -7.453125 C 21.710938 -9.054688 22.40625 -11.078125 22.40625 -13.515625 C 22.40625 -15.941406 21.710938 -17.960938 20.328125 -19.578125 C 18.953125 -21.203125 17.164062 -22.015625 14.96875 -22.015625 C 12.8125 -22.015625 11.039062 -21.203125 9.65625 -19.578125 C 8.28125 -17.960938 7.59375 -15.941406 7.59375 -13.515625 C 7.59375 -11.078125 8.273438 -9.054688 9.640625 -7.453125 C 11.003906 -5.859375 12.78125 -5.0625 14.96875 -5.0625 Z M 14.96875 -5.0625 "/></g></g></g></svg>